<svg width="533" height="452" viewBox="0 0 533 452" fill="none" xmlns="http://www.w3.org/2000/svg">
<path d="M84.7613 117.755L125.94 206.006L195.699 191.511L192.114 180.499L134.238 193.355L97.5145 117.499C97.156 116.731 96.5926 116.065 95.8756 115.553C94.0317 114.221 90.1392 112.224 85.7344 114.785C84.7101 115.348 84.2491 116.68 84.7613 117.755Z" fill="#ABC6EF"/>
<path d="M299.724 451H166.25L166.25 249.504L299.724 249.504V451Z" fill="url(#paint0_linear_2065_126850)"/>
<path d="M172.909 331.234L178.287 347.317C178.287 347.317 169.99 357.1 170.399 368.368C170.399 368.368 204.101 351.978 203.64 349.263C203.179 346.498 191.706 321.195 191.706 321.195L172.909 331.234Z" fill="#515151"/>
<path d="M86.9139 310.594L77.0801 324.372C77.0801 324.372 64.2756 323.399 55.4149 330.262C55.4149 330.262 88.3993 347.984 90.3968 346.037C92.3431 344.091 106.172 319.916 106.172 319.916L86.9139 310.594Z" fill="#515151"/>
<path d="M130.297 215.072C128.044 210.718 73.7526 305.781 74.6233 307.676L115.495 328.368L143.102 283.552L130.297 215.072Z" fill="white" stroke="#515151" stroke-width="1.25214" stroke-miterlimit="10"/>
<path d="M200.878 188.385C200.878 188.385 117.342 195.812 122.105 231.563C122.105 231.563 119.595 258.401 161.389 337.484L203.695 322.937L168.713 250.053L272.429 248.414C272.429 248.414 309.101 236.582 297.526 187.412L249.535 177.117L200.878 188.385Z" fill="white" stroke="#515151" stroke-width="1.25214" stroke-miterlimit="10"/>
<path d="M254.397 101.262C254.397 101.262 256.855 115.552 259.313 118.011C261.772 120.469 269.659 120.469 269.659 120.469L283.949 109.15L273.603 93.8865L254.397 101.262Z" fill="white" stroke="#515151" stroke-width="0.62607" stroke-miterlimit="10"/>
<path d="M249.213 101.957C235.372 98.4197 227.02 84.3321 230.557 70.4912C234.094 56.6503 248.181 48.2973 262.021 51.8343C275.862 55.3713 284.215 69.4589 280.678 83.2998C277.141 97.1407 263.054 105.494 249.213 101.957Z" fill="white"/>
<path d="M255.629 51.2753C241.493 51.2753 230.02 62.7483 230.02 76.8848C230.02 91.0212 241.493 102.494 255.629 102.494C269.765 102.494 281.238 91.0212 281.238 76.8848C281.289 62.7483 269.765 51.2753 255.629 51.2753ZM255.629 50.7631C270.072 50.7631 281.75 62.441 281.75 76.8848C281.75 91.3285 270.072 103.006 255.629 103.006C241.185 103.006 229.508 91.3285 229.508 76.8848C229.559 62.441 241.237 50.7631 255.629 50.7631Z" fill="#515151"/>
<path d="M159.748 183.264C157.648 184.134 156.265 189.103 154.523 190.793C152.782 192.483 150.221 191.1 152.884 187.156M159.953 188.59C157.34 192.483 159.236 194.276 161.233 192.944C162.104 192.329 163.282 190.588 164.255 188.846C165.894 185.978 168.711 184.032 171.989 183.52C178.289 182.598 190.12 182.342 209.275 187.412C240.518 195.659 260.237 194.89 265.871 163.237L244.564 157.808C244.308 158.422 240.569 174.147 240.569 174.147C240.569 174.147 182.847 167.539 174.242 167.539C165.33 167.539 151.399 179.832 149.709 186.388C149.402 187.617 149.35 190.69 152.782 187.207C153.704 186.285 154.523 183.929 157.136 181.881M156.316 188.078C153.704 191.971 155.497 193.661 157.597 192.432C159.594 191.254 159.901 186.132 162.923 183.878" fill="#FCFCFC"/>
<path d="M159.748 183.264C157.648 184.134 156.265 189.103 154.523 190.793C152.782 192.483 150.221 191.1 152.884 187.156M159.953 188.59C157.34 192.483 159.236 194.276 161.233 192.944C162.104 192.329 163.282 190.588 164.255 188.846C165.894 185.978 168.711 184.032 171.989 183.52C178.289 182.598 190.12 182.342 209.275 187.412C240.518 195.659 260.237 194.89 265.871 163.237L244.564 157.808C244.308 158.422 240.569 174.147 240.569 174.147C240.569 174.147 182.847 167.539 174.242 167.539C165.33 167.539 151.399 179.832 149.709 186.388C149.402 187.617 149.35 190.69 152.782 187.207C153.704 186.285 154.523 183.929 157.136 181.881M156.316 188.078C153.704 191.971 155.497 193.661 157.597 192.432C159.594 191.254 159.901 186.132 162.923 183.878" stroke="#515151" stroke-width="1.25214" stroke-miterlimit="10"/>
<path d="M137.16 166.259C133.216 167.232 130.757 172.303 128.299 172.661C125.687 173.071 124.509 170.561 128.811 167.744M125.687 165.388C121.436 168.257 123.382 170.715 125.841 169.691C128.299 168.718 131.731 164.262 134.24 164.262M125.687 165.388C121.436 168.257 123.382 170.715 125.841 169.691C128.299 168.718 131.731 164.262 134.24 164.262M132.243 169.742C127.992 172.61 129.17 175.171 131.731 174.659C132.857 174.454 134.752 173.122 136.494 171.791C139.311 169.588 142.999 168.769 146.481 169.64C153.191 171.279 165.227 175.939 182.487 188.949C210.555 210.154 230.786 217.529 249.48 187.976L230.274 173.686C229.762 174.198 222.386 184.544 222.386 184.544C222.386 184.544 164.049 158.064 155.393 154.479C146.43 150.791 127.326 157.449 122.87 163.34C122.05 164.466 120.719 167.54 125.636 165.44C126.967 164.876 128.76 162.879 132.192 161.905" fill="white"/>
<path d="M137.16 166.259C133.216 167.232 130.757 172.303 128.299 172.661C125.687 173.071 124.509 170.561 128.811 167.744M125.687 165.388C121.436 168.257 123.382 170.715 125.841 169.691C128.299 168.718 131.731 164.262 134.24 164.262M132.243 169.742C127.992 172.61 129.17 175.171 131.731 174.659C132.857 174.454 134.752 173.122 136.494 171.791C139.311 169.588 142.999 168.769 146.481 169.64C153.191 171.279 165.227 175.939 182.487 188.949C210.555 210.154 230.786 217.529 249.48 187.976L230.274 173.686C229.762 174.198 222.386 184.544 222.386 184.544C222.386 184.544 164.049 158.064 155.393 154.479C146.43 150.791 127.326 157.449 122.87 163.34C122.05 164.466 120.719 167.54 125.636 165.44C126.967 164.876 128.76 162.879 132.192 161.905" stroke="#515151" stroke-width="1.25214" stroke-miterlimit="10"/>
<path d="M413.737 450.787H317.703V284.786H413.737V450.787Z" fill="url(#paint1_linear_2065_126850)"/>
<path d="M369.28 309.57C366.649 309.57 364.517 307.437 364.517 304.807C364.517 302.176 366.649 300.043 369.28 300.043C371.91 300.043 374.043 302.176 374.043 304.807C374.043 307.437 371.91 309.57 369.28 309.57Z" fill="white"/>
<path d="M397.618 317.713C395.758 315.852 395.758 312.836 397.618 310.976C399.479 309.116 402.494 309.116 404.355 310.976C406.215 312.836 406.215 315.852 404.355 317.713C402.494 319.573 399.479 319.573 397.618 317.713Z" fill="white"/>
<path d="M375.784 337.739C373.153 337.739 371.02 335.606 371.02 332.976C371.02 330.345 373.153 328.212 375.784 328.212C378.414 328.212 380.547 330.345 380.547 332.976C380.547 335.606 378.414 337.739 375.784 337.739Z" fill="white"/>
<path d="M381.115 364.564C379.254 362.704 379.254 359.688 381.115 357.828C382.975 355.968 385.991 355.968 387.851 357.828C389.711 359.688 389.711 362.704 387.851 364.564C385.991 366.424 382.975 366.424 381.115 364.564Z" fill="white"/>
<path d="M388.04 396.201C386.18 394.341 386.18 391.325 388.04 389.464C389.9 387.604 392.916 387.604 394.776 389.464C396.637 391.325 396.637 394.34 394.776 396.201C392.916 398.061 389.9 398.061 388.04 396.201Z" fill="white"/>
<path d="M371.018 419.281C368.387 419.281 366.255 417.148 366.255 414.517C366.255 411.887 368.387 409.754 371.018 409.754C373.649 409.754 375.781 411.887 375.781 414.517C375.781 417.148 373.649 419.281 371.018 419.281Z" fill="white"/>
<path d="M389.6 428.033C388.599 425.6 389.76 422.816 392.193 421.815C394.626 420.814 397.409 421.975 398.41 424.408C399.411 426.841 398.25 429.625 395.818 430.626C393.385 431.627 390.601 430.466 389.6 428.033Z" fill="white"/>
<path d="M355.521 387.962C353.661 386.101 353.661 383.085 355.521 381.225C357.381 379.365 360.397 379.365 362.257 381.225C364.117 383.085 364.117 386.101 362.257 387.962C360.397 389.822 357.381 389.822 355.521 387.962Z" fill="white"/>
<path d="M354.12 358.126C351.489 358.126 349.356 355.993 349.356 353.362C349.356 350.732 351.489 348.599 354.12 348.599C356.75 348.599 358.883 350.732 358.883 353.362C358.883 355.993 356.75 358.126 354.12 358.126Z" fill="white"/>
<path d="M328.559 346.284C326.512 344.631 326.193 341.632 327.845 339.585C329.498 337.538 332.497 337.218 334.544 338.871C336.591 340.524 336.91 343.523 335.258 345.57C333.605 347.617 330.606 347.936 328.559 346.284Z" fill="white"/>
<path d="M328.575 380.966C326.528 379.313 326.208 376.314 327.861 374.267C329.513 372.22 332.512 371.901 334.559 373.553C336.606 375.206 336.926 378.205 335.273 380.252C333.621 382.299 330.622 382.619 328.575 380.966Z" fill="white"/>
<path d="M343.264 409.292C340.633 409.292 338.501 407.16 338.501 404.529C338.501 401.898 340.633 399.765 343.264 399.765C345.895 399.765 348.027 401.898 348.027 404.529C348.027 407.16 345.895 409.292 343.264 409.292Z" fill="white"/>
<path d="M330.387 430.016C327.842 429.352 326.317 426.749 326.981 424.204C327.646 421.658 330.248 420.133 332.793 420.798C335.339 421.463 336.864 424.065 336.199 426.61C335.535 429.156 332.933 430.681 330.387 430.016Z" fill="white"/>
<path d="M344.728 325.509C342.868 323.648 342.868 320.632 344.728 318.772C346.588 316.912 349.604 316.912 351.464 318.772C353.324 320.632 353.324 323.648 351.464 325.509C349.604 327.369 346.588 327.369 344.728 325.509Z" fill="white"/>
<path d="M338.908 66.5361C338.908 66.5361 366.003 85.7432 380.292 53.2191C394.582 20.6951 351.559 57.2654 390.178 74.1677C408.104 80.0579 415.018 56.9069 422.394 45.1265C429.769 33.2949 441.6 38.212 443.598 57.4191C446.107 80.2628 459.731 66.8946 467.056 57.7776C475.506 47.2777 491.23 45.946 501.064 55.2679C501.32 55.4728 501.525 55.7289 501.781 55.9337" stroke="#515151" stroke-width="1.25214" stroke-miterlimit="10" stroke-linecap="round"/>
<path d="M531.691 207.184C513.765 201.294 506.851 224.445 499.475 236.225C492.1 248.057 480.269 243.14 478.271 223.933C475.761 201.089 462.138 214.457 454.813 223.574C446.362 234.074 430.639 235.406 420.805 226.084C420.549 225.879 420.344 225.623 420.088 225.418" stroke="#515151" stroke-width="1.25214" stroke-miterlimit="10" stroke-linecap="round"/>
<path d="M-1.0462e-05 450.986H532" stroke="#515151" stroke-width="1.87359" stroke-miterlimit="10"/>
<path d="M335.166 118.42C315.857 125.796 299.007 127.947 288.404 116.525L266.739 87.9447C269.198 89.4301 275.6 78.5717 269.198 76.1131C262.796 73.6546 261.31 80.057 261.31 80.057C247.994 82.0033 242.616 67.2522 242.616 67.2522C236.726 77.5985 229.811 75.6522 229.811 75.6522C232.423 48.8134 257.879 47.1744 274.371 54.1914C273.295 52.706 272.681 50.9646 272.681 49.0183C272.681 43.8452 277.29 39.6452 283.027 39.6452C288.763 39.6452 293.373 43.8452 293.373 49.0183C293.373 54.1914 288.763 58.3914 283.027 58.3914C282.617 58.3914 282.156 58.3914 281.746 58.3401C285.997 61.5157 288.661 65.3571 288.456 69.2498C288.097 75.3449 294.858 74.1668 294.858 74.1668C313.501 72.1693 314.013 85.4862 314.013 85.4862C315.499 95.8325 321.901 96.3447 321.901 96.3447C333.835 99.1105 338.035 105.206 339.417 109.969C340.442 113.452 338.547 117.14 335.166 118.42Z" fill="black"/>
<path d="M257.423 116.524C257.014 116.473 256.604 126.359 256.45 130.251C256.399 131.224 255.989 132.146 255.221 132.812C250.714 136.756 234.222 151.917 226.027 169.536C225.31 171.073 225.822 172.917 227.205 173.89L250.099 190.28C250.663 190.69 251.38 190.946 252.097 190.946L315.504 192.738C317.809 192.79 319.551 190.69 319.09 188.436C316.426 175.426 307.258 136.756 289.127 114.783C288.974 114.629 288.871 114.424 288.769 114.22L286.669 110.327C285.747 108.586 283.596 107.92 281.854 108.893C276.425 111.812 265.055 117.242 257.423 116.524Z" fill="#ABC6EF"/>
<path d="M286.461 120.47V130.458" stroke="white" stroke-width="3.13028" stroke-miterlimit="10" stroke-linecap="round"/>
<path d="M262.747 130.406H272.684" stroke="white" stroke-width="3.13028" stroke-miterlimit="10" stroke-linecap="round"/>
<path d="M288.102 145.157L280.829 138.294" stroke="white" stroke-width="3.13028" stroke-miterlimit="10" stroke-linecap="round"/>
<path d="M265.309 143.159L266.18 153.095" stroke="white" stroke-width="3.13028" stroke-miterlimit="10" stroke-linecap="round"/>
<path d="M253.934 143.415L245.022 147.871" stroke="white" stroke-width="3.13028" stroke-miterlimit="10" stroke-linecap="round"/>
<path d="M248.457 161.444L238.674 159.446" stroke="white" stroke-width="3.13028" stroke-miterlimit="10" stroke-linecap="round"/>
<path d="M254.344 173.583L248.607 181.727" stroke="white" stroke-width="3.13028" stroke-miterlimit="10" stroke-linecap="round"/>
<path d="M281.035 115.808L272.123 120.315" stroke="white" stroke-width="3.13028" stroke-miterlimit="10" stroke-linecap="round"/>
<path d="M302.594 149.869L295.884 157.194" stroke="white" stroke-width="3.13028" stroke-miterlimit="10" stroke-linecap="round"/>
<path d="M284.977 156.477L275.092 155.504" stroke="white" stroke-width="3.13028" stroke-miterlimit="10" stroke-linecap="round"/>
<path d="M274.266 164.006L266.071 169.692" stroke="white" stroke-width="3.13028" stroke-miterlimit="10" stroke-linecap="round"/>
<path d="M303.824 165.49L295.629 171.176" stroke="white" stroke-width="3.13028" stroke-miterlimit="10" stroke-linecap="round"/>
<path d="M310.431 171.228L310.688 181.165" stroke="white" stroke-width="3.13028" stroke-miterlimit="10" stroke-linecap="round"/>
<path d="M290.817 181.779L300.805 181.42" stroke="white" stroke-width="3.13028" stroke-miterlimit="10" stroke-linecap="round"/>
<path d="M271.304 185.26L276.938 177.013" stroke="white" stroke-width="3.13028" stroke-miterlimit="10" stroke-linecap="round"/>
<path d="M265.97 79.5428C267.404 81.5916 266.585 83.5379 264.485 84.5623C263.87 84.8696 264.331 85.7916 264.946 85.433C267.097 83.9989 267.916 81.5916 265.97 79.5428Z" fill="#515151"/>
<path d="M247.286 101.261C250.769 101.108 254.149 98.8542 254.969 95.3713C254.969 95.3201 254.918 95.2688 254.866 95.3713C253.944 98.7005 250.615 100.8 247.235 100.8C246.928 100.749 246.928 101.261 247.286 101.261Z" fill="#515151"/>
<path d="M48.5057 249.285C44.8285 249.285 41.8474 246.303 41.8474 242.626C41.8474 238.949 44.8285 235.968 48.5057 235.968C52.183 235.968 55.1641 238.949 55.1641 242.626C55.1641 246.303 52.183 249.285 48.5057 249.285Z" stroke="#515151" stroke-width="1.20742" stroke-miterlimit="10" stroke-linecap="round"/>
<path d="M495.275 23.6666C491.598 23.6666 488.617 20.6855 488.617 17.0081C488.617 13.3307 491.598 10.3496 495.275 10.3496C498.953 10.3496 501.934 13.3307 501.934 17.0081C501.934 20.6855 498.953 23.6666 495.275 23.6666Z" stroke="#515151" stroke-width="1.20742" stroke-miterlimit="10" stroke-linecap="round"/>
<path d="M255.166 105.104C255.166 105.104 261.568 104.951 265.512 101.007C265.512 101.007 258.136 103.465 254.91 102.748L255.166 105.104Z" fill="#515151"/>
<path d="M155.864 1.53657C134.814 1.53657 117.656 18.6949 117.656 39.746C117.656 60.797 134.814 77.9553 155.864 77.9553C176.915 77.9553 194.073 60.797 194.073 39.746C194.073 18.6949 176.915 1.53657 155.864 1.53657ZM155.864 0C177.837 0 195.609 17.773 195.609 39.746C195.609 61.7189 177.837 79.4919 155.864 79.4919C133.892 79.4919 116.119 61.7189 116.119 39.746C116.119 17.773 133.892 0 155.864 0Z" fill="#515151"/>
<path d="M155.859 11.0659V39.7485" stroke="#515151" stroke-width="1.95281" stroke-miterlimit="10" stroke-linecap="round" stroke-linejoin="round"/>
<path d="M141.771 53.7807L155.855 39.7467" stroke="#515151" stroke-width="1.95281" stroke-miterlimit="10" stroke-linecap="round" stroke-linejoin="round"/>
<path d="M152.887 39.7498C152.887 41.3888 154.219 42.7205 155.857 42.7205C157.496 42.7205 158.828 41.3888 158.828 39.7498C158.828 38.1108 157.496 36.7791 155.857 36.7791C154.219 36.7791 152.887 38.1108 152.887 39.7498Z" fill="#515151"/>
<defs>
<linearGradient id="paint0_linear_2065_126850" x1="274.63" y1="240.731" x2="236.471" y2="471.984" gradientUnits="userSpaceOnUse">
<stop stop-color="#FFC42E"/>
<stop offset="1" stop-color="#E8B138" stop-opacity="0"/>
</linearGradient>
<linearGradient id="paint1_linear_2065_126850" x1="400.626" y1="274.791" x2="340.955" y2="461.483" gradientUnits="userSpaceOnUse">
<stop stop-color="#FFC42E"/>
<stop offset="1" stop-color="#E8B138" stop-opacity="0"/>
</linearGradient>
</defs>
</svg>
