<svg width="220" height="80" viewBox="0 0 220 80" fill="none" xmlns="http://www.w3.org/2000/svg">
  <!-- Icon Part -->
  <g id="icon">
    <!-- Outer Circle/Ring -->
    <circle cx="40" cy="40" r="30" fill="url(#gradient1)" opacity="0.15"/>
    <circle cx="40" cy="40" r="26" stroke="url(#gradient1)" stroke-width="2.5" fill="none"/>
    
    <!-- Network Nodes -->
    <circle cx="40" cy="18" r="4" fill="#667eea"/>
    <circle cx="54" cy="28" r="4" fill="#764ba2"/>
    <circle cx="54" cy="52" r="4" fill="#667eea"/>
    <circle cx="40" cy="62" r="4" fill="#764ba2"/>
    <circle cx="26" cy="52" r="4" fill="#667eea"/>
    <circle cx="26" cy="28" r="4" fill="#764ba2"/>
    
    <!-- Center Hub -->
    <circle cx="40" cy="40" r="7" fill="url(#gradient1)"/>
    
    <!-- Connecting Lines -->
    <line x1="40" y1="18" x2="40" y2="33" stroke="url(#gradient1)" stroke-width="1.5" opacity="0.5"/>
    <line x1="54" y1="28" x2="47" y2="35" stroke="url(#gradient1)" stroke-width="1.5" opacity="0.5"/>
    <line x1="54" y1="52" x2="47" y2="45" stroke="url(#gradient1)" stroke-width="1.5" opacity="0.5"/>
    <line x1="40" y1="62" x2="40" y2="47" stroke="url(#gradient1)" stroke-width="1.5" opacity="0.5"/>
    <line x1="26" y1="52" x2="33" y2="45" stroke="url(#gradient1)" stroke-width="1.5" opacity="0.5"/>
    <line x1="26" y1="28" x2="33" y2="35" stroke="url(#gradient1)" stroke-width="1.5" opacity="0.5"/>
  </g>
  
  <!-- Text Part -->
  <g id="text">
    <!-- SellerNexus -->
    <text x="85" y="38" font-family="Arial, sans-serif" font-size="20" font-weight="700" fill="#ffffff">
      Seller<tspan fill="#667eea">Nexus</tspan>
    </text>
    <!-- Tagline -->
    <text x="85" y="54" font-family="Arial, sans-serif" font-size="9" font-weight="400" fill="#aaaaaa" letter-spacing="0.5">
      MULTI-CHANNEL SOLUTION
    </text>
  </g>
  
  <!-- Gradients -->
  <defs>
    <linearGradient id="gradient1" x1="0%" y1="0%" x2="100%" y2="100%">
      <stop offset="0%" style="stop-color:#667eea;stop-opacity:1" />
      <stop offset="100%" style="stop-color:#764ba2;stop-opacity:1" />
    </linearGradient>
  </defs>
</svg>
